<svg xmlns="http://www.w3.org/2000/svg" viewBox="0 0 32 32" shape-rendering="crispEdges">
  <rect x="9" y="4" width="7" height="2" fill="#2a1d14"/>
  <rect x="7" y="6" width="11" height="7" fill="#2a1d14"/>
  <rect x="9" y="13" width="7" height="2" fill="#2a1d14"/>
  <rect x="10" y="5" width="5" height="2" fill="#e7f8ff"/>
  <rect x="8" y="7" width="9" height="5" fill="#aee8ff"/>
  <rect x="10" y="7" width="4" height="2" fill="#f3fdff"/>
  <rect x="17" y="4" width="7" height="2" fill="#2a1d14"/>
  <rect x="15" y="6" width="11" height="7" fill="#2a1d14"/>
  <rect x="17" y="13" width="7" height="2" fill="#2a1d14"/>
  <rect x="18" y="5" width="5" height="2" fill="#e7f8ff"/>
  <rect x="16" y="7" width="9" height="5" fill="#aee8ff"/>
  <rect x="18" y="7" width="4" height="2" fill="#f3fdff"/>
  <rect x="5" y="13" width="22" height="1" fill="#2a1d14"/>
  <rect x="4" y="14" width="24" height="2" fill="#2a1d14"/>
  <rect x="3" y="16" width="26" height="7" fill="#2a1d14"/>
  <rect x="5" y="23" width="22" height="2" fill="#2a1d14"/>
  <rect x="8" y="25" width="16" height="2" fill="#2a1d14"/>
  <rect x="5" y="15" width="4" height="8" fill="#ffd84d"/>
  <rect x="9" y="14" width="4" height="11" fill="#2a1d14"/>
  <rect x="13" y="14" width="5" height="11" fill="#ffd84d"/>
  <rect x="18" y="14" width="4" height="11" fill="#2a1d14"/>
  <rect x="22" y="15" width="5" height="8" fill="#ffd84d"/>
  <rect x="6" y="16" width="2" height="2" fill="#fff0a8"/>
  <rect x="14" y="15" width="3" height="2" fill="#fff0a8"/>
  <rect x="23" y="16" width="2" height="2" fill="#fff0a8"/>
  <rect x="25" y="17" width="2" height="2" fill="#2a1d14"/>
  <rect x="26" y="19" width="2" height="1" fill="#ff8aa5"/>
  <rect x="29" y="18" width="2" height="1" fill="#2a1d14"/>
  <rect x="30" y="17" width="1" height="1" fill="#2a1d14"/>
  <rect x="23" y="10" width="1" height="4" fill="#2a1d14"/>
  <rect x="24" y="9" width="3" height="1" fill="#2a1d14"/>
  <rect x="8" y="10" width="1" height="4" fill="#2a1d14"/>
  <rect x="5" y="9" width="3" height="1" fill="#2a1d14"/>
</svg>
